<svg width="2330" height="2259" viewBox="0 0 2330 2259" fill="none" xmlns="http://www.w3.org/2000/svg">
<path d="M1844.76 2096.82V2068.71C1833.62 2081.66 1826.85 2098.45 1826.85 2116.86C1826.85 2155.74 1856.88 2187.54 1895 2190.49C1888.98 2176.67 1885.6 2161.43 1885.6 2145.39C1885.6 2145.37 1885.6 2145.33 1885.6 2145.3C1862.49 2141.27 1844.76 2121.03 1844.76 2096.82Z" fill="#21242D"/>
<path d="M1844.75 2096.82C1844.75 2121.04 1862.48 2141.28 1885.59 2145.3C1885.63 2105.17 1906.62 2070.02 1938.15 2049.98V2037.74L1933.46 2017.24H1844.75V2028.57V2068.72V2096.82Z" fill="#491622"/>
<path d="M1917.52 1947.26H1828.8L1844.76 2017.23H1933.47L1917.52 1947.26Z" fill="#601E2B"/>
<path d="M1077.67 2116.86C1077.67 2151.23 1054.17 2180.05 1022.38 2188.33C1027.82 2175.07 1030.87 2160.59 1030.87 2145.39C1030.87 2144.14 1030.72 2142.93 1030.68 2141.69C1029.42 2103.07 1008.88 2069.42 978.309 2049.98V2093.37C990.341 2107.35 997.657 2125.5 997.657 2145.39C997.657 2189.51 961.892 2225.29 917.77 2225.29C873.65 2225.29 837.883 2189.51 837.883 2145.39C837.883 2125.5 845.201 2107.35 857.23 2093.37V2049.98C825.673 2070.05 804.673 2105.23 804.673 2145.39C804.673 2207.86 855.309 2258.49 917.77 2258.49C950.932 2258.49 980.664 2244.13 1001.35 2221.39C1002.15 2221.42 1002.93 2221.51 1003.74 2221.51C1061.54 2221.51 1108.4 2174.66 1108.4 2116.86C1108.4 2079.69 1088.97 2047.13 1059.76 2028.57V2068.71C1070.9 2081.66 1077.67 2098.45 1077.67 2116.86Z" fill="#16181B"/>
<path d="M1022.38 2188.33C1054.17 2180.05 1077.67 2151.23 1077.67 2116.86C1077.67 2098.45 1070.9 2081.66 1059.76 2068.71V2096.82C1059.76 2116.73 1047.78 2133.94 1030.68 2141.69C1030.72 2142.93 1030.87 2144.14 1030.87 2145.39C1030.87 2160.59 1027.82 2175.07 1022.38 2188.33Z" fill="#21242D"/>
<path d="M978.309 2037.74V2049.98C1008.88 2069.42 1029.42 2103.07 1030.68 2141.69C1047.78 2133.94 1059.76 2116.73 1059.76 2096.82V2068.71V2028.57V2017.23H982.983L978.309 2037.74Z" fill="#491622"/>
<path d="M982.983 2017.23H1059.76L1075.72 1947.26H998.938L982.983 2017.23Z" fill="#601E2B"/>
<path d="M925.078 2176.97H910.462C881.185 2176.97 857.23 2153.01 857.23 2123.74V2093.37C845.201 2107.35 837.883 2125.5 837.883 2145.39C837.883 2189.51 873.65 2225.29 917.77 2225.29C961.891 2225.29 997.657 2189.51 997.657 2145.39C997.657 2125.5 990.341 2107.35 978.309 2093.37V2123.74C978.309 2153.01 954.357 2176.97 925.078 2176.97Z" fill="#333744"/>
<path d="M857.23 2123.74C857.23 2153.01 881.185 2176.97 910.462 2176.97H925.078C954.357 2176.97 978.309 2153.01 978.309 2123.74V2093.37V2049.98V2037.74H857.23V2049.98V2093.37V2123.74Z" fill="#601E2B"/>
<path d="M982.983 2017.23L998.938 1947.26H836.601L857.23 2037.74H978.309L982.983 2017.23Z" fill="#7F2738"/>
<path d="M2078.57 2145.39C2078.57 2189.52 2042.8 2225.29 1998.68 2225.29C1954.57 2225.29 1918.8 2189.52 1918.8 2145.39C1918.8 2125.5 1926.11 2107.36 1938.15 2093.37V2049.98C1906.62 2070.02 1885.62 2105.17 1885.59 2145.3C1885.59 2145.33 1885.59 2145.37 1885.59 2145.39C1885.59 2161.44 1888.97 2176.68 1894.98 2190.49C1856.87 2187.54 1826.84 2155.74 1826.84 2116.86C1826.84 2098.45 1833.62 2081.66 1844.74 2068.72V2028.57C1815.54 2047.13 1796.11 2079.69 1796.11 2116.86C1796.11 2174.66 1842.96 2221.51 1900.76 2221.51C1905.37 2221.51 1909.89 2221.11 1914.32 2220.54C1935.04 2243.78 1965.11 2258.49 1998.68 2258.49C2061.14 2258.49 2111.78 2207.86 2111.78 2145.39C2111.78 2105.24 2090.78 2070.05 2059.23 2049.98V2093.37C2071.26 2107.36 2078.57 2125.5 2078.57 2145.39Z" fill="#16181B"/>
<path d="M1998.69 2225.29C2042.81 2225.29 2078.59 2189.51 2078.59 2145.39C2078.59 2125.5 2071.28 2107.35 2059.25 2093.37V2123.74C2059.25 2153.01 2035.28 2176.97 2006 2176.97H1991.39C1962.11 2176.97 1938.16 2153.01 1938.16 2123.74V2093.37C1926.12 2107.35 1918.82 2125.5 1918.82 2145.39C1918.82 2189.51 1954.57 2225.29 1998.69 2225.29Z" fill="#333744"/>
<path d="M1938.17 2049.98V2093.37V2123.74C1938.17 2153.01 1962.11 2176.97 1991.4 2176.97H2006C2035.28 2176.97 2059.25 2153.01 2059.25 2123.74V2093.37V2049.98V2037.74H1938.17V2049.98Z" fill="#601E2B"/>
<path d="M1933.49 2017.23L1938.16 2037.74H2059.25L2079.87 1947.26H1917.54L1933.49 2017.23Z" fill="#7F2738"/>
<path d="M2262.62 879.9H2106.07L2113.78 595.59H2279.46L2262.62 879.9ZM2246.26 1156.36L2098.49 1159.98L2105.11 915.529H2260.52L2246.26 1156.36ZM2234.19 1360.3C2231.82 1400.25 2196.02 1432.13 2150.91 1434.48L2090.98 1437.58L2097.53 1195.66L2244.14 1192.06L2234.19 1360.3ZM2068.46 879.9H1871.01L1866.43 595.59H2076.15L2068.46 879.9ZM2060.85 1160.9L1875.65 1165.46L1871.6 915.529H2067.48L2060.85 1160.9ZM2053.31 1439.53L1880.22 1448.5L1876.22 1201.09L2059.89 1196.58L2053.31 1439.53ZM1677.74 1459.01L1668.09 1206.21L1840.59 1201.97L1844.61 1450.36L1677.74 1459.01ZM1657 915.529H1835.95L1840.02 1166.33L1666.73 1170.59L1657 915.529ZM1644.8 595.59H1830.78L1835.38 879.9H1655.64L1644.8 595.59ZM1485.61 1468.97L1467.27 1211.14L1632.46 1207.09L1642.14 1460.85L1485.61 1468.97ZM1446.24 915.529H1621.32L1631.1 1171.46L1464.74 1175.55L1446.24 915.529ZM1314.22 1477.85L1281.14 1215.72L1431.59 1212.02L1450.01 1470.81L1314.22 1477.85ZM1135.74 1487.1L1089.77 1220.41L1245.33 1216.6L1278.53 1479.7L1135.74 1487.1ZM919.22 1498.33L871.123 1225.78L1053.75 1221.3L1099.89 1488.95L919.22 1498.33ZM836.083 1502.64L783.109 1227.94L835.09 1226.67L883.357 1500.18L836.083 1502.64ZM729.104 1439.18L686.02 1230.33L746.982 1228.84L799.677 1502.08C764.511 1496.13 735.8 1471.62 729.104 1439.18ZM678.701 1194.86L621.076 915.529H686.562L740.14 1193.36L678.701 1194.86ZM555.071 595.59H624.859L679.689 879.9H613.726L555.071 595.59ZM723.725 595.59L773.896 879.9H715.987L661.158 595.59H723.725ZM945.905 595.59L994.909 879.9H810.086L759.916 595.59H945.905ZM1166.98 595.59L1202.85 879.9H1031.07L982.073 595.59H1166.98ZM1037.22 915.529H1207.34L1240.85 1181.05L1083.65 1184.92L1037.22 915.529ZM828.824 1191.17L776.266 1192.46L722.86 915.529H780.187L828.824 1191.17ZM816.376 915.529H1001.05L1047.64 1185.8L864.859 1190.29L816.376 915.529ZM1387.75 595.59L1407.99 879.9H1238.77L1202.9 595.59H1387.75ZM1429.08 1176.42L1276.66 1180.17L1243.26 915.529H1410.52L1429.08 1176.42ZM1609.12 595.59L1619.96 879.9H1443.71L1423.49 595.59H1609.12ZM652.092 548.585L612.724 344.443C611.037 333.257 586.476 184.347 471.623 143.812L253.062 72.7269L242.578 106.79L460.178 177.575C556.139 211.433 577.317 348.619 577.515 349.996L577.577 350.407L615.795 548.585H534.611L480.299 326.517C478.887 320.204 458.667 234.816 394.135 206.655C346.842 186.024 278.577 165.994 228.497 152.562L217.991 186.704C267.186 199.883 334.607 219.565 379.881 239.326C428.69 260.621 445.377 333.653 445.534 334.365L497.924 548.585H497.379L683.069 1448.68C695.273 1507.84 751.784 1550.54 816.248 1550.54C818.762 1550.54 821.289 1550.48 823.823 1550.34L873.075 1547.79L681.417 1810.66C660.971 1835.9 656.875 1869.76 670.758 1899.18C684.744 1928.84 713.808 1947.26 746.598 1947.26H836.599H998.937H1075.72H1828.79H1917.53H2079.86H2194.13C2207.11 1947.26 2217.63 1936.74 2217.63 1923.76C2217.63 1910.78 2207.11 1900.25 2194.13 1900.25H746.598C731.971 1900.25 719.512 1892.35 713.273 1879.13C707.033 1865.9 708.862 1851.26 718.164 1839.97L900.198 1590.38L1160.57 1573.21C1173.53 1572.36 1183.33 1561.17 1182.47 1548.21C1182.05 1541.77 1179.06 1536.11 1174.58 1532.15L2153.35 1481.42C2222.41 1477.84 2277.32 1426.97 2281.12 1363.09L2291.31 1190.9L2292.11 1190.88L2291.88 1181.22L2329.33 548.585H652.092Z" fill="#8B6A5B"/>
<path d="M242.577 106.785L253.062 72.7191L259.396 52.1324C259.396 52.1324 180.485 24.1094 101.299 3.46002C59.4396 -7.45175 19.9255 7.74955 7.32922 44.7588C-21.7991 130.315 45.2981 162.878 45.2981 162.878L208.773 216.67L217.992 186.69L228.497 152.561L242.577 106.785Z" fill="#7F2738"/>
<path d="M1844.76 2096.82V2068.71C1833.62 2081.66 1826.85 2098.45 1826.85 2116.86C1826.85 2155.74 1856.88 2187.54 1895 2190.49C1888.98 2176.67 1885.6 2161.43 1885.6 2145.39C1885.6 2145.37 1885.6 2145.33 1885.6 2145.3C1862.49 2141.27 1844.76 2121.03 1844.76 2096.82Z" fill="#523F31"/>
<path d="M1844.75 2096.82C1844.75 2121.04 1862.48 2141.28 1885.59 2145.3C1885.63 2105.17 1906.62 2070.02 1938.15 2049.98V2037.74L1933.46 2017.24H1844.75V2028.57V2068.72V2096.82Z" fill="#2D1E17"/>
<path d="M1917.52 1947.26H1828.8L1844.76 2017.23H1933.47L1917.52 1947.26Z" fill="#2D1E17"/>
<path d="M1077.67 2116.86C1077.67 2151.23 1054.17 2180.05 1022.38 2188.33C1027.82 2175.07 1030.87 2160.59 1030.87 2145.39C1030.87 2144.14 1030.72 2142.93 1030.68 2141.69C1029.42 2103.07 1008.88 2069.42 978.309 2049.98V2093.37C990.341 2107.35 997.657 2125.5 997.657 2145.39C997.657 2189.51 961.892 2225.29 917.77 2225.29C873.65 2225.29 837.883 2189.51 837.883 2145.39C837.883 2125.5 845.201 2107.35 857.23 2093.37V2049.98C825.673 2070.05 804.673 2105.23 804.673 2145.39C804.673 2207.86 855.309 2258.49 917.77 2258.49C950.932 2258.49 980.664 2244.13 1001.35 2221.39C1002.15 2221.42 1002.93 2221.51 1003.74 2221.51C1061.54 2221.51 1108.4 2174.66 1108.4 2116.86C1108.4 2079.69 1088.97 2047.13 1059.76 2028.57V2068.71C1070.9 2081.66 1077.67 2098.45 1077.67 2116.86Z" fill="#16181B"/>
<path d="M1022.38 2188.33C1054.17 2180.05 1077.67 2151.23 1077.67 2116.86C1077.67 2098.45 1070.9 2081.66 1059.76 2068.71V2096.82C1059.76 2116.73 1047.78 2133.94 1030.68 2141.69C1030.72 2142.93 1030.87 2144.14 1030.87 2145.39C1030.87 2160.59 1027.82 2175.07 1022.38 2188.33Z" fill="#523F31"/>
<path d="M978.309 2037.74V2049.98C1008.88 2069.42 1029.42 2103.07 1030.68 2141.69C1047.78 2133.94 1059.76 2116.73 1059.76 2096.82V2068.71V2028.57V2017.23H982.983L978.309 2037.74Z" fill="#2D1E17"/>
<path d="M982.983 2017.23H1059.76L1075.72 1947.26H998.938L982.983 2017.23Z" fill="#2D1E17"/>
<path d="M925.078 2176.97H910.462C881.185 2176.97 857.23 2153.01 857.23 2123.74V2093.37C845.201 2107.35 837.883 2125.5 837.883 2145.39C837.883 2189.51 873.65 2225.29 917.77 2225.29C961.891 2225.29 997.657 2189.51 997.657 2145.39C997.657 2125.5 990.341 2107.35 978.309 2093.37V2123.74C978.309 2153.01 954.357 2176.97 925.078 2176.97Z" fill="#523F31"/>
<path d="M857.23 2123.74C857.23 2153.01 881.185 2176.97 910.462 2176.97H925.078C954.357 2176.97 978.309 2153.01 978.309 2123.74V2093.37V2049.98V2037.74H857.23V2049.98V2093.37V2123.74Z" fill="#2D1E17"/>
<path d="M982.983 2017.23L998.938 1947.26H836.601L857.23 2037.74H978.309L982.983 2017.23Z" fill="#523F31"/>
<path d="M2078.57 2145.39C2078.57 2189.52 2042.8 2225.29 1998.68 2225.29C1954.57 2225.29 1918.8 2189.52 1918.8 2145.39C1918.8 2125.5 1926.11 2107.36 1938.15 2093.37V2049.98C1906.62 2070.02 1885.62 2105.17 1885.59 2145.3C1885.59 2145.33 1885.59 2145.37 1885.59 2145.39C1885.59 2161.44 1888.97 2176.68 1894.98 2190.49C1856.87 2187.54 1826.84 2155.74 1826.84 2116.86C1826.84 2098.45 1833.62 2081.66 1844.74 2068.72V2028.57C1815.54 2047.13 1796.11 2079.69 1796.11 2116.86C1796.11 2174.66 1842.96 2221.51 1900.76 2221.51C1905.37 2221.51 1909.89 2221.11 1914.32 2220.54C1935.04 2243.78 1965.11 2258.49 1998.68 2258.49C2061.14 2258.49 2111.78 2207.86 2111.78 2145.39C2111.78 2105.24 2090.78 2070.05 2059.23 2049.98V2093.37C2071.26 2107.36 2078.57 2125.5 2078.57 2145.39Z" fill="#16181B"/>
<path d="M1998.69 2225.29C2042.81 2225.29 2078.59 2189.51 2078.59 2145.39C2078.59 2125.5 2071.28 2107.35 2059.25 2093.37V2123.74C2059.25 2153.01 2035.28 2176.97 2006 2176.97H1991.39C1962.11 2176.97 1938.16 2153.01 1938.16 2123.74V2093.37C1926.12 2107.35 1918.82 2125.5 1918.82 2145.39C1918.82 2189.51 1954.57 2225.29 1998.69 2225.29Z" fill="#523F31"/>
<path d="M1938.17 2049.98V2093.37V2123.74C1938.17 2153.01 1962.11 2176.97 1991.4 2176.97H2006C2035.28 2176.97 2059.25 2153.01 2059.25 2123.74V2093.37V2049.98V2037.74H1938.17V2049.98Z" fill="#2D1E17"/>
<path d="M1933.49 2017.23L1938.16 2037.74H2059.25L2079.87 1947.26H1917.54L1933.49 2017.23Z" fill="#523F31"/>
<path d="M2262.62 879.9H2106.07L2113.78 595.59H2279.46L2262.62 879.9ZM2246.26 1156.36L2098.49 1159.98L2105.11 915.529H2260.52L2246.26 1156.36ZM2234.19 1360.3C2231.82 1400.25 2196.02 1432.13 2150.91 1434.48L2090.98 1437.58L2097.53 1195.66L2244.14 1192.06L2234.19 1360.3ZM2068.46 879.9H1871.01L1866.43 595.59H2076.15L2068.46 879.9ZM2060.85 1160.9L1875.65 1165.46L1871.6 915.529H2067.48L2060.85 1160.9ZM2053.31 1439.53L1880.22 1448.5L1876.22 1201.09L2059.89 1196.58L2053.31 1439.53ZM1677.74 1459.01L1668.09 1206.21L1840.59 1201.97L1844.61 1450.36L1677.74 1459.01ZM1657 915.529H1835.95L1840.02 1166.33L1666.73 1170.59L1657 915.529ZM1644.8 595.59H1830.78L1835.38 879.9H1655.64L1644.8 595.59ZM1485.61 1468.97L1467.27 1211.14L1632.46 1207.09L1642.14 1460.85L1485.61 1468.97ZM1446.24 915.529H1621.32L1631.1 1171.46L1464.74 1175.55L1446.24 915.529ZM1314.22 1477.85L1281.14 1215.72L1431.59 1212.02L1450.01 1470.81L1314.22 1477.85ZM1135.74 1487.1L1089.77 1220.41L1245.33 1216.6L1278.53 1479.7L1135.74 1487.1ZM919.22 1498.33L871.123 1225.78L1053.75 1221.3L1099.89 1488.95L919.22 1498.33ZM836.083 1502.64L783.109 1227.94L835.09 1226.67L883.357 1500.18L836.083 1502.64ZM729.104 1439.18L686.02 1230.33L746.982 1228.84L799.677 1502.08C764.511 1496.13 735.8 1471.62 729.104 1439.18ZM678.701 1194.86L621.076 915.529H686.562L740.14 1193.36L678.701 1194.86ZM555.071 595.59H624.859L679.689 879.9H613.726L555.071 595.59ZM723.725 595.59L773.896 879.9H715.987L661.158 595.59H723.725ZM945.905 595.59L994.909 879.9H810.086L759.916 595.59H945.905ZM1166.98 595.59L1202.85 879.9H1031.07L982.073 595.59H1166.98ZM1037.22 915.529H1207.34L1240.85 1181.05L1083.65 1184.92L1037.22 915.529ZM828.824 1191.17L776.266 1192.46L722.86 915.529H780.187L828.824 1191.17ZM816.376 915.529H1001.05L1047.64 1185.8L864.859 1190.29L816.376 915.529ZM1387.75 595.59L1407.99 879.9H1238.77L1202.9 595.59H1387.75ZM1429.08 1176.42L1276.66 1180.17L1243.26 915.529H1410.52L1429.08 1176.42ZM1609.12 595.59L1619.96 879.9H1443.71L1423.49 595.59H1609.12ZM652.092 548.585L612.724 344.443C611.037 333.257 586.476 184.347 471.623 143.812L253.062 72.7269L242.578 106.79L460.178 177.575C556.139 211.433 577.317 348.619 577.515 349.996L577.577 350.407L615.795 548.585H534.611L480.299 326.517C478.887 320.204 458.667 234.816 394.135 206.655C346.842 186.024 278.577 165.994 228.497 152.562L217.991 186.704C267.186 199.883 334.607 219.565 379.881 239.326C428.69 260.621 445.377 333.653 445.534 334.365L497.924 548.585H497.379L683.069 1448.68C695.273 1507.84 751.784 1550.54 816.248 1550.54C818.762 1550.54 821.289 1550.48 823.823 1550.34L873.075 1547.79L681.417 1810.66C660.971 1835.9 656.875 1869.76 670.758 1899.18C684.744 1928.84 713.808 1947.26 746.598 1947.26H836.599H998.937H1075.72H1828.79H1917.53H2079.86H2194.13C2207.11 1947.26 2217.63 1936.74 2217.63 1923.76C2217.63 1910.78 2207.11 1900.25 2194.13 1900.25H746.598C731.971 1900.25 719.512 1892.35 713.273 1879.13C707.033 1865.9 708.862 1851.26 718.164 1839.97L900.198 1590.38L1160.57 1573.21C1173.53 1572.36 1183.33 1561.17 1182.47 1548.21C1182.05 1541.77 1179.06 1536.11 1174.58 1532.15L2153.35 1481.42C2222.41 1477.84 2277.32 1426.97 2281.12 1363.09L2291.31 1190.9L2292.11 1190.88L2291.88 1181.22L2329.33 548.585H652.092Z" fill="#8B6A5B"/>
<path d="M242.577 106.785L253.062 72.7191L259.396 52.1324C259.396 52.1324 180.485 24.1094 101.299 3.46002C59.4396 -7.45175 19.9255 7.74955 7.32922 44.7588C-21.7991 130.315 45.2981 162.878 45.2981 162.878L208.773 216.67L217.992 186.69L228.497 152.561L242.577 106.785Z" fill="#523F31"/>
</svg>
